<svg xmlns="http://www.w3.org/2000/svg" viewBox="0 0 31 31"><defs><style>.cls-1{fill:#327f7f;}</style></defs><title>email</title><g id="Layer_2" data-name="Layer 2"><g id="Layer_1-2" data-name="Layer 1"><path class="cls-1" d="M22.87,21.13H8.06l5.41-5.4a18.62,18.62,0,0,1,1.48,1.15c.43.4.73.34,1.13,0s1-.77,1.44-1.12l5.36,5.38"/><path class="cls-1" d="M7.94,9.88H23c-.19.17-.3.28-.42.37-2.23,1.71-4.46,3.41-6.68,5.14a.56.56,0,0,1-.83,0c-2.33-1.81-4.68-3.61-7.15-5.51"/><path class="cls-1" d="M7.87,19.15V11.44l4.38,3.36L7.87,19.15"/><path class="cls-1" d="M18.84,14.73l4.29-3.29V19l-4.29-4.3"/><path class="cls-1" d="M15.5,31A15.5,15.5,0,1,1,31,15.5,15.52,15.52,0,0,1,15.5,31m0-30A14.5,14.5,0,1,0,30,15.5,14.52,14.52,0,0,0,15.5,1"/></g></g></svg>