<svg xmlns="http://www.w3.org/2000/svg" viewBox="0 0 25.85 25.85"><defs><style>.cls-2{fill:#fff;}.cls-3{fill:none;stroke:#fff;stroke-miterlimit:10;}</style></defs><title>fb</title><g id="Layer_2" data-name="Layer 2"><g id="Слой_1" data-name="Слой 1"><g class="cls-1"><path class="cls-2" d="M11.41,13.65c-.63,0-1.12,0-1.61,0-.33,0-.5-.09-.49-.45q0-.77,0-1.55c0-.35.14-.48.48-.47.49,0,1,0,1.55,0,0-.24,0-.45,0-.65,0-.55,0-1.11.07-1.66a2.75,2.75,0,0,1,2.71-2.61A10.19,10.19,0,0,1,16,6.35a.58.58,0,0,1,.38.41c.05.45,0,.91,0,1.37s-.11.49-.46.47a8.28,8.28,0,0,0-1.09,0,.89.89,0,0,0-.95,1c0,.36,0,.73,0,1.09,0,.13,0,.27,0,.49h2.35c-.11.81-.19,1.52-.31,2.22,0,.11-.27.23-.42.24-.51,0-1,0-1.62,0v6.11H11.41Z"/><circle class="cls-3" cx="12.92" cy="12.92" r="12.42"/></g></g></g></svg>