<svg xmlns="http://www.w3.org/2000/svg" viewBox="0 0 25.85 25.85"><defs><style>.cls-2{fill:#fff;}.cls-3{fill:none;stroke:#fff;stroke-miterlimit:10;}</style></defs><title>ins</title><g id="Layer_2" data-name="Layer 2"><g id="Слой_1" data-name="Слой 1"><g class="cls-1"><path class="cls-2" d="M13.07,7c.89,0,1.78,0,2.67,0A3.45,3.45,0,0,1,18,8a3.67,3.67,0,0,1,1.15,2.16,3.26,3.26,0,0,1,0,.51c0,1.63,0,3.26,0,4.89a3.74,3.74,0,0,1-3.78,3.68c-1.61,0-3.21,0-4.82,0a3.59,3.59,0,0,1-3-1.62,3.51,3.51,0,0,1-.66-2c0-1.66,0-3.32,0-5a3.56,3.56,0,0,1,1.5-2.86A3.65,3.65,0,0,1,10.72,7h2.34Zm-5.33,6.1h0q0,1.24,0,2.47a2.49,2.49,0,0,0,.22,1,2.86,2.86,0,0,0,2.69,1.81c1.62,0,3.23,0,4.85,0a2.67,2.67,0,0,0,1-.19,2.93,2.93,0,0,0,1.9-2.78q0-2.36,0-4.72a3.15,3.15,0,0,0-.1-.76,2.92,2.92,0,0,0-2.8-2.2c-1.64,0-3.27,0-4.91,0a2.65,2.65,0,0,0-1.47.45A2.88,2.88,0,0,0,7.74,10.8C7.74,11.58,7.74,12.36,7.74,13.14Z"/><path class="cls-2" d="M16.18,13.15A3.12,3.12,0,1,1,13.06,10,3.12,3.12,0,0,1,16.18,13.15Zm-3.11-2.32a2.32,2.32,0,1,0,2.31,2.33A2.32,2.32,0,0,0,13.06,10.83Z"/><path class="cls-2" d="M9.75,9A.75.75,0,1,1,9,9.77.75.75,0,0,1,9.75,9Z"/><circle class="cls-3" cx="12.92" cy="12.92" r="12.42"/></g></g></g></svg>