<svg xmlns="http://www.w3.org/2000/svg" viewBox="0 0 31 31"><defs><style>.cls-1{fill:#327f7f;}</style></defs><title>map</title><g id="Layer_2" data-name="Layer 2"><g id="Layer_1-2" data-name="Layer 1"><path class="cls-1" d="M14.92,6.5h1.17l.15,0a11.21,11.21,0,0,1,1.37.32,6.62,6.62,0,0,1,3.83,8.74,16.69,16.69,0,0,1-2.21,3.71,37.89,37.89,0,0,0-3.42,5,1.15,1.15,0,0,1-.19.21H15.4c-.22-.35-.42-.71-.66-1.06-1-1.43-2-2.86-3-4.27a16.94,16.94,0,0,1-2.24-3.85A6.32,6.32,0,0,1,9.39,11,6.32,6.32,0,0,1,14.3,6.62l.62-.12m4,6.45a3.37,3.37,0,1,0-3.38,3.35A3.36,3.36,0,0,0,18.87,13"/><path class="cls-1" d="M15.5,31A15.5,15.5,0,1,1,31,15.5,15.52,15.52,0,0,1,15.5,31m0-30A14.5,14.5,0,1,0,30,15.5,14.52,14.52,0,0,0,15.5,1"/></g></g></svg>