<?xml version="1.0" encoding="UTF-8"?>
<!DOCTYPE svg PUBLIC "-//W3C//DTD SVG 1.1//EN" "http://www.w3.org/Graphics/SVG/1.1/DTD/svg11.dtd">
<!-- Creator: CorelDRAW X8 -->
<svg xmlns="http://www.w3.org/2000/svg" xml:space="preserve" width="17.7146mm" height="17.7146mm" version="1.1" style="shape-rendering:geometricPrecision; text-rendering:geometricPrecision; image-rendering:optimizeQuality; fill-rule:evenodd; clip-rule:evenodd"
viewBox="0 0 1490 1490"
 xmlns:xlink="http://www.w3.org/1999/xlink">
 <defs>
  <style type="text/css">
   <![CDATA[
    .str0 {stroke:#D9DADA;stroke-width:67.2666}
    .fil0 {fill:none}
    .fil1 {fill:#D9DADA}
   ]]>
  </style>
 </defs>
 <g id="Слой_x0020_1">
  <metadata id="CorelCorpID_0Corel-Layer"/>
  <circle class="fil0 str0" cx="745" cy="745" r="711"/>
  <g id="_1189874368">
   <path class="fil1" d="M1189 512l-273 -136c-1,-1 -2,-1 -3,-1 -1,0 -1,0 -1,0 -3,0 -6,2 -8,5l-168 272 187 305 269 -436c1,-3 0,-7 -3,-9z"/>
   <polygon class="fil1" points="647,557 647,851 909,981 "/>
   <path class="fil1" d="M931 992l240 120c13,7 24,0 24,-14l0 -534 -264 428z"/>
   <path class="fil1" d="M618 514l-251 -126 -16 -8c-2,-1 -4,-2 -6,-2 -3,0 -6,1 -7,3 -2,2 -3,5 -3,9l0 574c0,9 7,21 16,25l247 124c3,1 7,2 10,2 8,0 14,-6 14,-17l0 -579c0,-2 -2,-4 -4,-5z"/>
  </g>
 </g>
</svg>
