<svg xmlns="http://www.w3.org/2000/svg" viewBox="0 0 31 31"><defs><style>.cls-1{fill:#327f7f;}</style></defs><title>phone</title><g id="Layer_2" data-name="Layer 2"><g id="Layer_1-2" data-name="Layer 1"><path class="cls-1" d="M18.58,24.7a5.81,5.81,0,0,1-4.06-1.65A13.44,13.44,0,0,1,12,19.51a22,22,0,0,1-1.74-3.84c-.18-.56-.3-1.13-.47-1.69a7.57,7.57,0,0,1-.34-2.48,5.48,5.48,0,0,1,1.43-3.79,5.82,5.82,0,0,1,2.41-1.38.88.88,0,0,1,1,.53c.48,1.06,1,2.12,1.42,3.19.31.74.16,1.07-.57,1.42-.42.2-.85.39-1.28.58a1.06,1.06,0,0,0-.58,1.5L15.74,19a1.12,1.12,0,0,0,1.63.58q.66-.31,1.34-.59a.92.92,0,0,1,1.31.51c.46,1,.89,2,1.37,3a1.06,1.06,0,0,1-.12,1.25,4.54,4.54,0,0,1-.63.35,4.94,4.94,0,0,1-2.05.57"/><path class="cls-1" d="M15.5,31A15.5,15.5,0,1,1,31,15.5,15.52,15.52,0,0,1,15.5,31m0-30A14.5,14.5,0,1,0,30,15.5,14.52,14.52,0,0,0,15.5,1"/></g></g></svg>