<?xml version="1.0" encoding="UTF-8"?>
<!DOCTYPE svg PUBLIC "-//W3C//DTD SVG 1.1//EN" "http://www.w3.org/Graphics/SVG/1.1/DTD/svg11.dtd">
<!-- Creator: CorelDRAW X8 -->
<svg xmlns="http://www.w3.org/2000/svg" xml:space="preserve" width="17.7146mm" height="17.7146mm" version="1.1" style="shape-rendering:geometricPrecision; text-rendering:geometricPrecision; image-rendering:optimizeQuality; fill-rule:evenodd; clip-rule:evenodd"
viewBox="0 0 274 274"
 xmlns:xlink="http://www.w3.org/1999/xlink">
 <defs>
  <style type="text/css">
   <![CDATA[
    .fil0 {fill:#C5C6C6;fill-rule:nonzero}
   ]]>
  </style>
 </defs>
 <g id="Слой_x0020_1">
  <metadata id="CorelCorpID_0Corel-Layer"/>
  <g id="_1321119744">
   <path class="fil0" d="M262 137c0,-34 -14,-66 -37,-88 -22,-23 -54,-37 -88,-37 -34,0 -66,14 -88,37 -23,22 -37,54 -37,88 0,34 14,66 37,88 22,23 54,37 88,37 34,0 66,-14 88,-37 23,-22 37,-54 37,-88zm-28 -97c25,25 40,59 40,97 0,38 -15,72 -40,97 -25,25 -59,40 -97,40 -38,0 -72,-15 -97,-40 -25,-25 -40,-59 -40,-97 0,-38 15,-72 40,-97 25,-25 59,-40 97,-40 38,0 72,15 97,40z"/>
   <path class="fil0" d="M107 161c0,0 -1,1 -1,1 -2,3 -3,8 -3,12 0,5 1,9 3,12 1,1 2,2 2,3 0,-2 0,-4 0,-6 -1,-4 -1,-8 -1,-13 0,-3 0,-5 0,-8l0 -1zm8 48l0 0c-3,1 -6,1 -8,3 -1,1 -2,3 -2,5l0 0 16 0 0 0c0,0 0,-1 0,-1l-1 0c0,-1 -1,-2 -2,-3l0 -1 0 0 0 0 0 0 0 0 0 0 -1 0 0 0 0 0 0 0 0 0 0 -1 0 0 0 0 0 0 0 0 0 0 0 0 0 0 0 0 0 0 0 0 0 0 0 -1 0 0 0 0 0 0 -1 0 0 0 0 0 0 0 0 0 0 0c0,0 -1,-1 -1,-1zm6 -4l0 0c1,3 3,5 4,7 2,2 3,3 5,4l0 0 0 0 0 0 0 0c0,1 1,1 1,1l11 0c0,0 1,0 1,-1l1 0c1,-1 2,-3 4,-4 1,-1 1,-3 2,-4l0 0 0 0 0 0 0 0 0 0 0 0 0 0 1 0 0 -1 0 0 0 0 0 0 0 0 0 0 0 0 0 0 0 0c1,-2 2,-4 3,-6 3,-8 5,-19 5,-31 0,-3 0,-7 -1,-10 0,-2 0,-4 0,-6l-1 0 0 0 0 0 0 0c-5,1 -11,2 -17,2l0 0 0 0 0 1 0 0 -1 0 0 0 0 0 0 0 0 0 0 0 -1 0 0 0 0 0 0 0 0 0 0 0 0 0 -1 0 0 0 0 0 0 0 0 0 0 0 -1 0 0 0 0 0 0 0 0 0 0 0 -1 0 0 0 0 0 0 0 0 0 0 0 -1 0 0 0 0 0 0 0 0 0 0 0 0 0 -1 0 0 0 0 0 0 -1 0 0 -1 0c-5,0 -11,-1 -16,-2l0 0 0 0 -1 0 0 0c0,2 -1,4 -1,6 0,3 0,7 0,10 0,12 2,23 5,31 0,1 1,3 2,4zm9 18l-30 0 -1 -2c0,0 0,-1 0,-2 0,0 -1,-1 -1,-2l0 0c0,-4 2,-7 5,-10 3,-2 6,-3 10,-4l0 0c0,-1 -1,-3 -2,-5 -4,0 -8,-3 -11,-7 -3,-4 -5,-10 -5,-17 0,-6 2,-12 5,-16 2,-3 4,-6 8,-7 -4,-1 -7,-3 -10,-5 -10,-7 -16,-16 -16,-27 0,-1 0,-2 0,-3 0,0 0,-1 -1,-1 -3,-2 -5,-5 -5,-9 -1,-3 0,-7 2,-10 2,-4 5,-6 9,-7 3,-1 7,-1 10,1 1,1 2,1 2,2 10,-6 22,-9 36,-10l7 -25c1,-2 2,-3 4,-2l20 4c1,-1 1,-2 2,-3 3,-2 6,-3 9,-3 3,0 6,1 8,3 3,2 4,5 4,9 0,3 -1,6 -4,8l0 0c-2,3 -5,4 -8,4 -3,0 -6,-1 -9,-4 -2,-2 -3,-5 -3,-8l-18 -4 -6 21c12,1 24,5 32,10 1,-1 2,-1 2,-2 4,-2 7,-2 11,-1 3,1 6,3 9,7 2,3 2,7 2,10 -1,4 -3,7 -6,9 0,0 0,1 0,1 0,1 0,2 0,3 0,11 -6,20 -17,27 -2,2 -6,4 -9,5 3,1 6,4 8,7 3,4 5,10 5,16l0 0c0,7 -2,12 -5,17 -3,4 -7,7 -12,7 0,2 -1,4 -2,5l0 0c4,0 8,2 11,4 3,2 5,6 5,10 0,1 0,1 0,2 0,1 0,2 -1,2l0 2 -30 0 0 0 0 0 -1 0 -13 0 0 0zm29 -14c-1,0 -2,1 -2,1l-1 0 0 0 0 0 0 1 0 0 0 0 0 0 0 0 0 0 0 0 0 0 0 0 -1 0 0 0 0 0 0 0 0 1 0 0 0 0 0 0 0 0 0 0 0 0 0 0 0 0 0 1 0 0 -1 0 0 0c0,1 -1,2 -1,2 -1,1 -1,2 -2,2l18 0 0 0c0,-2 -1,-4 -3,-5 -2,-2 -4,-3 -7,-3zm4 -19c2,-1 3,-2 4,-4 2,-3 3,-7 3,-12l0 0c0,-5 -1,-9 -4,-12 0,-1 -1,-2 -1,-2 0,3 0,7 0,10 0,7 -1,14 -2,20zm-50 -43l1 0c1,0 3,1 4,1l0 0 0 0 1 0 0 0 0 0 0 0 0 0 0 0 0 0 0 0 1 0 0 1 0 0 0 0 1 0 0 0c4,1 8,1 12,1l0 0 0 0 0 0 0 0 1 0 0 0 0 0 0 0 0 0 0 0 0 0 1 0 0 0 0 0 0 0 0 0 0 0 1 0 0 0 0 0 0 0 0 0 0 0 1 0 0 0 0 0 0 0 0 0 0 0 0 0 1 0 0 0 0 0 0 0 0 0 0 0 0 0 1 0 0 0 0 0 0 0 0 0 0 0 1 0 0 0c4,0 9,-1 13,-2l0 0 0 0 0 0 1 0 0 0 0 0 0 0 0 0 0 0 0 0 0 0 1 0 0 0 0 0 0 0 0 0 0 0c1,0 1,0 2,0l0 -1c0,0 1,0 2,0l0 0c5,-2 9,-4 12,-6 8,-6 14,-13 14,-22 0,-2 -1,-4 -2,-7l0 0 0 0 0 0 0 0 0 -1 0 0 0 0 0 0 0 0 0 0 0 0 0 -1 0 0 0 0 0 0 -1 0 0 0 0 0 0 0 0 0 0 0 0 0 0 -1 0 0 0 0 0 0 0 0 0 0 0 0 0 0 0 0 0 -1 -1 0 0 0 0 0 0 0c0,-1 -1,-1 -1,-2 -1,-1 -1,-2 -2,-2l0 0 0 -1 -1 0 0 0 0 0 0 0 0 0 0 0 0 0 0 -1 0 0 0 0 -1 0 0 0 0 0c-1,-1 -3,-3 -5,-4 -9,-6 -21,-10 -35,-10 -13,0 -26,4 -34,10l-1 0 0 1c-4,2 -6,4 -8,7 -1,1 -1,1 -1,2l0 0 0 0 0 0 -1 0 0 0 0 0 0 0 0 0 0 0 0 0 0 1 0 0 0 0 0 0 0 0 0 0 -1 1 0 0 0 0 0 0 0 0 0 0 0 0 0 0 0 0 0 1 0 0 0 0 0 0 0 0 0 0 0 0 0 0 0 1 -1 0 0 0 0 0 0 0c-1,3 -1,5 -1,7 0,9 5,16 14,22 3,2 7,4 11,6zm41 -42c5,0 8,3 8,7 0,5 -3,8 -8,8 -4,0 -8,-3 -8,-8 0,-4 4,-7 8,-7zm-36 0c5,0 8,3 8,7 0,5 -3,8 -8,8 -4,0 -8,-3 -8,-8 0,-4 4,-7 8,-7zm35 26c1,-1 3,-1 5,0 1,2 1,4 0,5l-1 0c-2,2 -5,4 -9,5 -3,1 -7,2 -12,2 -4,0 -8,-1 -12,-2 -3,-1 -7,-3 -9,-5 -1,-1 -1,-3 0,-5 1,-1 3,-1 4,0 2,2 4,3 7,4 3,1 7,2 10,2 4,0 7,-1 10,-2 3,-1 5,-2 7,-3l0 -1zm25 -35c5,4 9,8 11,13 1,-1 2,-2 2,-3 0,-3 0,-5 -2,-7 -1,-2 -3,-4 -5,-4 -2,-1 -4,-1 -5,0l-1 1zm-94 13c2,-4 4,-8 8,-12l0 0c1,0 1,-1 2,-1l0 0 0 0 0 0 0 0 0 0 0 0 0 0 0 -1c-2,-1 -4,-1 -5,0 -2,0 -4,2 -6,4 -1,2 -1,4 -1,7 0,1 1,2 2,3zm97 -48c-1,-1 -2,-2 -4,-2 -2,0 -3,1 -4,2 -1,1 -2,2 -2,4 0,1 1,3 2,4 1,1 2,2 4,2 2,0 3,-1 4,-2l0 0c1,-1 2,-3 2,-4 0,-2 -1,-3 -2,-4z"/>
  </g>
 </g>
</svg>
