<svg xmlns="http://www.w3.org/2000/svg" viewBox="0 0 25.85 25.85">
    <defs>
        <style>.cls-2{fill:#fff;}.cls-3{fill:none;stroke:#fff;stroke-miterlimit:10;}</style>
    </defs>
    <title>tg</title>
    <g id="Layer_2" data-name="Layer 2">
        <g id="Слой_1" data-name="Слой 1">
            <g class="cls-1">
                <path class="cls-2"
                      d="M19.07,7.7c-.25,1.23-.52,2.59-.81,3.94q-.71,3.43-1.44,6.86c-.19.89-.36,1-1.12.42s-1.67-1.17-2.48-1.8a1,1,0,0,0-1.43.06c-.37.35-.78.66-1.18,1s-.74.35-1-.3c-.32-1-.66-1.93-.89-2.92a1.47,1.47,0,0,0-1.1-1.14c-.66-.21-1.31-.45-1.94-.72a3.51,3.51,0,0,1-.67-.5c.23-.2.42-.48.69-.59,2.79-1.1,5.59-2.16,8.39-3.24,1.37-.53,2.74-1.07,4.11-1.59C18.88,6.9,19.08,7,19.07,7.7ZM9.25,14c.24.83.44,1.58.67,2.32,0,.12.17.21.26.31a1.11,1.11,0,0,0,.16-.37,3.11,3.11,0,0,1,1.22-2.37C13,12.63,14.34,11.31,15.72,10a1.43,1.43,0,0,0,.2-.34,1.14,1.14,0,0,0-.32.08c-2,1.2-3.94,2.4-5.89,3.62A2.21,2.21,0,0,0,9.25,14Z"/>
                <circle class="cls-3" cx="12.92" cy="12.92" r="12.42"/>
            </g>
        </g>
    </g>
</svg>