<svg xmlns="http://www.w3.org/2000/svg" viewBox="0 0 25.85 25.85"><defs><style>.cls-1{fill:#fff;}.cls-2{fill:none;stroke:#fff;stroke-miterlimit:10;}</style></defs><title>tw</title><g id="Layer_2" data-name="Layer 2"><g id="Слой_1" data-name="Слой 1"><path class="cls-1" d="M11.32,16.18A3.47,3.47,0,0,1,9,14.24l.83-.16C8.93,13.4,8,12.79,8.1,11.41H8.9a3.32,3.32,0,0,1-.52-3.64,8.05,8.05,0,0,0,5.39,2.89,14.81,14.81,0,0,1,1.15-2.43,2.51,2.51,0,0,1,3.39-.59,1.59,1.59,0,0,0,2,.07,4.65,4.65,0,0,1,.6-.18L20,8.89l.94-.07c0,.13,0,.25-.06.27-1.07.67-1,1.81-1.19,2.84a7.94,7.94,0,0,1-4.51,5.89,8.24,8.24,0,0,1-6.67,0,8.88,8.88,0,0,1-.93-.53C9,17.1,10.25,17.14,11.32,16.18Z"/><circle class="cls-2" cx="12.92" cy="12.92" r="12.42"/></g></g></svg>