<svg xmlns="http://www.w3.org/2000/svg" viewBox="0 0 25.85 25.85"><defs><style>.cls-2{fill:#fff;}.cls-3{fill:none;stroke:#fff;stroke-miterlimit:10;}</style></defs><title>vk</title><g id="Layer_2" data-name="Layer 2"><g id="Слой_1" data-name="Слой 1"><g class="cls-1"><path class="cls-2" d="M18.81,18.87h0a3.16,3.16,0,0,1-3.26-1.47,3,3,0,0,0-.57-.57c-.32-.26-.63-.2-.78.18a4.47,4.47,0,0,0-.23,1.1c-.06.52-.21.68-.72.73a6.18,6.18,0,0,1-5.76-2.7,28.5,28.5,0,0,1-3.2-5.61c-.24-.54-.07-.8.52-.81s1.46,0,2.19,0a.89.89,0,0,1,.84.58c.5,1,1,1.95,1.57,2.91a2.41,2.41,0,0,0,.5.58c.29.26.63.18.65-.2a24.78,24.78,0,0,0,0-2.85c0-.2-.36-.38-.56-.56A1.85,1.85,0,0,0,9.65,10c.07-.11.12-.28.22-.32a4.66,4.66,0,0,1,1.22-.34,13.06,13.06,0,0,1,2,.06c.6.05.83.27.86.87,0,.85,0,1.7,0,2.55a2.93,2.93,0,0,0,.09.8c.1.36.32.42.6.16a3.37,3.37,0,0,0,.65-.77c.51-.9,1-1.82,1.45-2.75a.79.79,0,0,1,.8-.53c.82,0,1.65,0,2.47,0s1.05.36.66,1c-.54.93-1.18,1.8-1.79,2.69-.17.26-.38.49-.55.75a.71.71,0,0,0,.08,1.05c.46.48,1,.92,1.4,1.4a7.25,7.25,0,0,1,.86,1.12c.35.58.08,1-.6,1.07-.4,0-.81,0-1.21,0Z"/><circle class="cls-3" cx="12.92" cy="12.92" r="12.42"/></g></g></g></svg>