<svg xmlns="http://www.w3.org/2000/svg" viewBox="0 0 25.85 25.85"><defs><style>.cls-2{fill:#fff;}.cls-3{fill:none;stroke:#fff;stroke-miterlimit:10;}</style></defs><title>yt</title><g id="Layer_2" data-name="Layer 2"><g id="Слой_1" data-name="Слой 1"><g class="cls-1"><path class="cls-2" d="M12.94,8.69c1.37,0,2.76.09,4.15.15,1.08.05,1.71.52,1.77,1.59a46.24,46.24,0,0,1,0,5.11,1.56,1.56,0,0,1-1.77,1.59c-2.75,0-5.5,0-8.25,0C7.58,17.1,7,16.55,7,15.26c-.07-1.53-.07-3.07,0-4.59C7,9.41,7.63,8.9,8.89,8.84S11.58,8.74,12.94,8.69Zm-1.2,2.63v3.32L14.93,13Z"/><circle class="cls-3" cx="12.92" cy="12.92" r="12.42"/></g></g></g></svg>