<?xml version="1.0" encoding="UTF-8"?>
<!DOCTYPE svg PUBLIC "-//W3C//DTD SVG 1.1//EN" "http://www.w3.org/Graphics/SVG/1.1/DTD/svg11.dtd">
<!-- Creator: CorelDRAW X8 -->
<svg xmlns="http://www.w3.org/2000/svg" xml:space="preserve" width="17.8913mm" height="17.8915mm" version="1.1" style="shape-rendering:geometricPrecision; text-rendering:geometricPrecision; image-rendering:optimizeQuality; fill-rule:evenodd; clip-rule:evenodd"
viewBox="0 0 1794 1794"
 xmlns:xlink="http://www.w3.org/1999/xlink">
 <defs>
  <style type="text/css">
   <![CDATA[
    .str0 {stroke:#D9DADA;stroke-width:7.6408}
    .fil0 {fill:#0096DB;fill-rule:nonzero}
   ]]>
  </style>
 </defs>
 <g id="Слой_x0020_1">
  <metadata id="CorelCorpID_0Corel-Layer"/>
  <path class="fil0" d="M897 4c247,0 470,100 632,261 161,162 261,385 261,632 0,247 -100,470 -261,632 -162,161 -385,261 -632,261 -247,0 -470,-100 -632,-261 -161,-162 -261,-385 -261,-632 0,-247 100,-470 261,-632 162,-161 385,-261 632,-261zm582 311c-149,-148 -355,-240 -582,-240 -227,0 -433,92 -582,240 -148,149 -240,355 -240,582 0,227 92,433 240,582 149,148 355,240 582,240 227,0 433,-92 582,-240 148,-149 240,-355 240,-582 0,-227 -92,-433 -240,-582z"/>
  <path class="fil0 str0" d="M897 4c247,0 470,100 632,261 161,162 261,385 261,632 0,247 -100,470 -261,632 -162,161 -385,261 -632,261 -247,0 -470,-100 -632,-261 -161,-162 -261,-385 -261,-632 0,-247 100,-470 261,-632 162,-161 385,-261 632,-261zm582 311c-149,-148 -355,-240 -582,-240 -227,0 -433,92 -582,240 -148,149 -240,355 -240,582 0,227 92,433 240,582 149,148 355,240 582,240 227,0 433,-92 582,-240 148,-149 240,-355 240,-582 0,-227 -92,-433 -240,-582z"/>
  <path class="fil0" d="M1393 600c-35,15 -72,26 -111,30 40,-24 71,-61 85,-107 -37,23 -79,39 -123,47 -35,-37 -85,-61 -140,-61 -107,0 -193,87 -193,193 0,15 1,30 5,44 -161,-8 -303,-85 -398,-201 -17,28 -26,61 -26,97 0,67 34,126 85,160 -31,-1 -61,-9 -87,-24l0 3c0,93 67,171 155,189 -16,4 -33,7 -51,7 -12,0 -25,-2 -36,-4 24,77 95,133 180,134 -66,52 -149,83 -240,83 -15,0 -31,-1 -46,-3 86,55 187,87 296,87 355,0 549,-294 549,-549 0,-9 0,-17 0,-25 37,-27 70,-61 96,-100z"/>
 </g>
</svg>
