<svg id="Logo" xmlns="http://www.w3.org/2000/svg" viewBox="0 0 140 60">
    <defs>
        <style>.cls-1,.cls-2{fill:#008297;}.cls-1{fill-opacity:0;}</style>
    </defs>
    <title>logo</title>
    <rect class="cls-1" width="140" height="60"/>
    <g id="Слой_1" data-name="Слой 1">
        <path class="cls-2"
              d="M9.3,54.208a6.039,6.039,0,0,1-3,.7,5.714,5.714,0,0,1-4.4-1.7,5.7,5.7,0,0,1-1.9-4.6,6.253,6.253,0,0,1,1.9-4.7,6.011,6.011,0,0,1,4.4-1.6,5.918,5.918,0,0,1,2.9.7v2.7a3.931,3.931,0,0,0-2.9-1.3,4.138,4.138,0,0,0-4,4.3,4.236,4.236,0,0,0,4.1,4,3.717,3.717,0,0,0,2.8-1.3v2.8Z"/>
        <path class="cls-2"
              d="M17.7,50.91l-1.4-3.7-1.5,3.7Zm.6,1.6H14.2l-.9,2.1H11.1l4.4-10.391H17l4.3,10.391h-2.1l-.9-2.1Z"/>
        <polygon class="cls-2"
                 points="25.39 48.412 29.786 48.412 29.786 44.415 31.685 44.415 31.685 54.607 29.786 54.607 29.786 50.111 25.39 50.111 25.39 54.607 23.491 54.607 23.491 44.415 25.39 44.415 25.39 48.412"/>
        <polygon class="cls-2"
                 points="37.08 48.712 40.877 44.415 43.376 44.415 39.079 49.112 43.575 54.607 40.977 54.607 37.28 50.011 37.08 50.311 37.08 54.607 35.082 54.607 35.082 44.415 37.08 44.415 37.08 48.712"/>
        <polygon class="cls-2"
                 points="49.471 46.114 49.471 54.607 47.472 54.607 47.472 46.114 45.174 46.114 45.174 44.415 51.769 44.415 51.769 46.114 49.471 46.114"/>
        <polygon class="cls-2" points="52.568 51.91 56.565 51.91 56.565 50.211 52.568 50.211 52.568 51.91"/>
        <polygon class="cls-2"
                 points="68.756 42.717 68.756 54.607 66.457 54.607 66.457 44.715 61.661 44.715 61.661 54.607 59.263 54.607 59.263 42.717 68.756 42.717"/>
        <polygon class="cls-2"
                 points="77.749 46.114 74.151 46.114 74.151 48.412 77.649 48.412 77.649 50.111 74.151 50.111 74.151 52.909 77.749 52.909 77.749 54.607 72.153 54.607 72.153 44.415 77.749 44.415 77.749 46.114"/>
        <polygon class="cls-2"
                 points="84.344 46.114 84.344 54.607 82.345 54.607 82.345 46.114 80.047 46.114 80.047 44.415 86.642 44.415 86.642 46.114 84.344 46.114"/>
        <polygon class="cls-2"
                 points="94.536 46.114 90.938 46.114 90.938 48.412 94.436 48.412 94.436 50.111 90.938 50.111 90.938 52.909 94.536 52.909 94.536 54.607 88.94 54.607 88.94 44.415 94.536 44.415 94.536 46.114"/>
        <path class="cls-2"
              d="M99.532,49.112h.8a2.764,2.764,0,0,0,1.3-.3,1.146,1.146,0,0,0,.5-1.2,1.424,1.424,0,0,0-.6-1.2,2.229,2.229,0,0,0-1.4-.3h-.7Zm1-4.7a3.764,3.764,0,0,1,2.7.8,3.414,3.414,0,0,1,.2,4.7,3.46,3.46,0,0,1-2.6.9h-1.3v3.8h-2V44.415Z"/>
        <path class="cls-2"
              d="M108.724,52.909h.9c1.6,0,1.9-.7,1.9-1.3s-.4-1.4-1.9-1.4h-1v2.7Zm-2-8.494h5.895v1.7h-3.9v2.3h1.4a3.743,3.743,0,0,1,2.5.8,3.251,3.251,0,0,1,1,2.3,2.99,2.99,0,0,1-.6,1.8,3.249,3.249,0,0,1-2.9,1.2h-3.4V44.415Z"/>
        <polygon class="cls-2"
                 points="116.818 55.906 118.217 52.409 114.62 44.415 116.718 44.415 119.216 50.311 121.514 44.415 123.613 44.415 118.916 55.806 116.818 55.906"/>
        <path class="cls-2"
              d="M127.51,49.112h.8a2.764,2.764,0,0,0,1.3-.3,1.146,1.146,0,0,0,.5-1.2,1.424,1.424,0,0,0-.6-1.2,2.228,2.228,0,0,0-1.4-.3h-.7Zm1-4.7a3.764,3.764,0,0,1,2.7.8,3.414,3.414,0,0,1,.2,4.7,3.46,3.46,0,0,1-2.6.9h-1.3v3.8h-2V44.415Z"/>
        <polygon class="cls-2"
                 points="140 46.114 136.603 46.114 136.603 54.607 134.604 54.607 134.604 44.415 140 44.415 140 46.114"/>
        <path class="cls-2"
              d="M25.09,30.326A13.659,13.659,0,1,0,7.2,22.932,13.821,13.821,0,0,0,18.1,31.226L.309,33.024v1l127.5-.2,5.9-14.389Z"/>
    </g>
</svg>
