<svg xmlns="http://www.w3.org/2000/svg" width="30" height="26" viewBox="0 0 30 26">
    <path fill="#FF7043" fill-rule="evenodd" d="M16.053 23.945c.511-6.328 5.565-11.382 11.893-11.893-.51 6.328-5.565 11.382-11.893 11.893m-14-11.893c6.328.51 11.382 5.565 11.893 11.893-6.328-.511-11.382-5.565-11.893-11.893m3.265-9.636C7.492 4.79 8.69 7.805 8.69 11.015c0 .366-.024.73-.055 1.095a14.878 14.878 0 0 0-6.587-2.06c.208-2.837 1.345-5.49 3.271-7.634M19.81 7.275a14.706 14.706 0 0 0-.498 3.74c0 .797.081 1.59.207 2.372A15.059 15.059 0 0 0 15 19.657a15.05 15.05 0 0 0-4.518-6.27c.126-.782.207-1.575.207-2.372 0-1.282-.18-2.532-.498-3.74a20.493 20.493 0 0 1 9.618 0m1.557 4.834a12.861 12.861 0 0 1-.055-1.094c0-3.21 1.197-6.224 3.37-8.6 1.927 2.145 3.063 4.798 3.271 7.636a14.886 14.886 0 0 0-6.586 2.058m4.05-11.83A.997.997 0 0 0 24.691 0a.996.996 0 0 0-.725.272 14.924 14.924 0 0 0-3.527 5.1 22.493 22.493 0 0 0-10.88 0 14.92 14.92 0 0 0-3.527-5.1A.993.993 0 0 0 5.307 0a1 1 0 0 0-.723.278C1.628 3.134 0 6.94 0 10.998c0 8.27 6.73 15 15 15 8.271 0 15-6.73 15-15 0-4.057-1.629-7.864-4.585-10.72"/>
</svg>
