<svg xmlns="http://www.w3.org/2000/svg" width="48" height="13" viewBox="0 0 48 13">
    <g fill="#616161" fill-rule="evenodd">
        <path d="M4.184 2.175c-.161.226-.24.471-.24.737v.815h1.56c.274 0 .503.09.686.268a.918.918 0 0 1 .274.685.92.92 0 0 1-.274.685.942.942 0 0 1-.686.268h-1.56v6.136c0 .301-.097.552-.291.754a.982.982 0 0 1-.738.303.979.979 0 0 1-.737-.303 1.042 1.042 0 0 1-.292-.754V5.633H.96a.938.938 0 0 1-.685-.268A.916.916 0 0 1 0 4.68c0-.277.09-.506.275-.685a.938.938 0 0 1 .685-.268h.926V2.93c0-.867.294-1.57.883-2.114C3.358.272 4.207 0 5.315 0c.424 0 .792.087 1.106.26a.851.851 0 0 1 .472.797c0 .278-.08.503-.24.676a.765.765 0 0 1-.583.26.951.951 0 0 1-.18-.017l-.197-.035a2.93 2.93 0 0 0-.686-.104c-.39 0-.663.113-.823.338M13.914 6.682a2.615 2.615 0 0 0-.943-1.032 2.46 2.46 0 0 0-1.312-.364c-.48 0-.917.122-1.31.364-.396.243-.71.587-.945 1.032-.234.445-.35.95-.35 1.516 0 .567.116 1.07.35 1.51.234.438.55.778.944 1.021.394.243.831.364 1.311.364s.918-.12 1.312-.364c.394-.243.708-.583.943-1.022.234-.44.351-.942.351-1.509 0-.566-.117-1.07-.35-1.516m1.791 4.004a4.386 4.386 0 0 1-1.689 1.707A4.701 4.701 0 0 1 11.66 13c-.869 0-1.658-.202-2.366-.607a4.4 4.4 0 0 1-1.68-1.707c-.412-.734-.618-1.563-.618-2.488 0-.924.206-1.753.617-2.487a4.478 4.478 0 0 1 1.681-1.716c.708-.41 1.497-.615 2.366-.615.857 0 1.643.205 2.358.615a4.463 4.463 0 0 1 1.69 1.716c.41.734.616 1.563.616 2.487 0 .925-.206 1.754-.617 2.488M24.875 11.804a.996.996 0 0 1-.326.745c-.217.209-.457.312-.72.312-.332 0-.612-.15-.84-.45L20.93 9.828l-2.006 2.583a1.091 1.091 0 0 1-.37.32.952.952 0 0 1-.453.113c-.24 0-.47-.092-.686-.278-.217-.184-.326-.398-.326-.641 0-.23.086-.45.257-.658L19.73 8.32l-2.47-3.102a.97.97 0 0 1-.222-.625c0-.288.105-.534.317-.736.21-.202.454-.304.729-.304.33 0 .61.145.84.434l2.109 2.652 1.955-2.617c.217-.312.49-.469.823-.469a.94.94 0 0 1 .694.286.9.9 0 0 1 .283.65c0 .255-.08.48-.24.676l-2.366 2.912 2.469 3.103a.974.974 0 0 1 .223.624M27.99 12.524a.979.979 0 0 1-.738.303.979.979 0 0 1-.737-.303 1.042 1.042 0 0 1-.292-.754V4.61c0-.3.097-.55.292-.754a.979.979 0 0 1 .737-.302c.297 0 .543.1.737.303.194.202.292.454.292.753v7.16c0 .3-.098.552-.292.754M26.412 2.236c-.16-.127-.24-.353-.24-.677V1.23c0-.323.085-.547.257-.675.171-.128.446-.192.823-.192.4 0 .68.065.84.192.16.127.24.352.24.675v.33c0 .335-.083.563-.249.684-.165.122-.448.182-.848.182-.389 0-.663-.063-.823-.19M36.798 3.84c.594.305.891.713.891 1.221 0 .254-.074.477-.222.667a.705.705 0 0 1-.584.286c-.182 0-.33-.025-.445-.078a1.58 1.58 0 0 1-.335-.208 2.414 2.414 0 0 0-.317-.216 2.154 2.154 0 0 0-.505-.157 2.898 2.898 0 0 0-.54-.069c-.858 0-1.53.27-2.016.806-.485.538-.728 1.24-.728 2.106 0 .832.246 1.523.737 2.072.492.55 1.12.823 1.886.823.56 0 .978-.07 1.252-.208.07-.035.163-.095.283-.182.12-.086.232-.153.334-.2a.94.94 0 0 1 .377-.069c.286 0 .512.093.678.278.165.185.25.421.25.71 0 .277-.16.538-.482.78-.32.243-.743.437-1.268.581a6.345 6.345 0 0 1-1.68.217c-.88 0-1.656-.208-2.324-.625a4.171 4.171 0 0 1-1.552-1.724c-.366-.734-.548-1.55-.548-2.453 0-.935.191-1.767.574-2.496a4.256 4.256 0 0 1 1.603-1.707c.686-.41 1.463-.615 2.332-.615.971 0 1.754.153 2.35.46M45.59 6.682a2.615 2.615 0 0 0-.942-1.032 2.46 2.46 0 0 0-1.312-.364c-.48 0-.917.122-1.311.364-.395.243-.71.587-.944 1.032-.234.445-.351.95-.351 1.516 0 .567.117 1.07.35 1.51.235.438.55.778.945 1.021.394.243.83.364 1.31.364.48 0 .919-.12 1.313-.364.394-.243.708-.583.943-1.022.234-.44.35-.942.35-1.509 0-.566-.116-1.07-.35-1.516m1.792 4.004a4.386 4.386 0 0 1-1.69 1.707 4.701 4.701 0 0 1-2.357.607c-.87 0-1.658-.202-2.366-.607a4.4 4.4 0 0 1-1.681-1.707c-.411-.734-.616-1.563-.616-2.488 0-.924.205-1.753.616-2.487a4.478 4.478 0 0 1 1.68-1.716c.709-.41 1.498-.615 2.367-.615.857 0 1.643.205 2.358.615a4.463 4.463 0 0 1 1.689 1.716c.41.734.617 1.563.617 2.487 0 .925-.206 1.754-.617 2.488"/>
    </g>
</svg>
