<?xml version="1.0" encoding="UTF-8"?>
<!DOCTYPE svg PUBLIC "-//W3C//DTD SVG 1.1//EN" "http://www.w3.org/Graphics/SVG/1.1/DTD/svg11.dtd">
<!-- Creator: CorelDRAW X8 -->
<svg xmlns="http://www.w3.org/2000/svg" xml:space="preserve" width="23.4141mm" height="6.8788mm" version="1.1" style="shape-rendering:geometricPrecision; text-rendering:geometricPrecision; image-rendering:optimizeQuality; fill-rule:evenodd; clip-rule:evenodd"
viewBox="0 0 14091 4140"
 xmlns:xlink="http://www.w3.org/1999/xlink">
 <defs>
  <style type="text/css">
   <![CDATA[
    .fil1 {fill:#616161}
    .fil0 {fill:#FF7043}
   ]]>
  </style>
 </defs>
 <g id="Слой_x0020_1">
  <metadata id="CorelCorpID_0Corel-Layer"/>
  <g>
   <path class="fil0" d="M2556 3813c81,-1008 886,-1812 1894,-1894 -81,1008 -886,1812 -1894,1894l0 0zm-2229 -1894c1008,81 1812,886 1894,1894 -1008,-82 -1813,-886 -1894,-1894l0 0zm520 -1534c346,378 537,858 537,1369 0,58 -4,116 -9,174 -319,-189 -679,-302 -1049,-327 33,-452 214,-875 521,-1216l0 0zm2307 774c-52,194 -78,394 -79,595 0,127 13,253 33,378 -322,264 -571,608 -719,998 -149,-390 -398,-734 -720,-998 20,-125 33,-251 33,-378 0,-204 -29,-403 -79,-596 250,-60 508,-91 765,-91 258,0 516,31 766,92l0 0zm248 769c-5,-58 -9,-116 -9,-174 0,-511 191,-991 537,-1369 307,341 488,764 521,1216 -371,25 -730,138 -1049,327l0 0zm645 -1883c-30,-29 -69,-45 -110,-45 -2,0 -4,0 -6,0 -2,0 -4,0 -6,0 -40,0 -79,16 -109,43 -242,228 -434,506 -562,812 -282,-70 -574,-106 -866,-106 -291,0 -583,36 -866,106 -128,-306 -319,-583 -561,-811 -30,-28 -69,-44 -109,-44 -2,0 -5,0 -7,0 -1,0 -3,0 -5,0 -41,0 -80,16 -110,44 -471,455 -730,1061 -730,1707 0,1317 1072,2389 2388,2389 1317,0 2389,-1072 2389,-2389 0,-646 -259,-1252 -730,-1707l0 1zm0 0l0 0 0 0z"/>
  </g>
  <g>
   <g id="_2759398722240">
    <g>
     <path class="fil1" d="M7114 1381c-25,36 -38,75 -38,118l0 129 248 0c44,0 80,15 110,43 28,27 43,65 43,104 0,2 0,4 0,5 0,2 0,3 0,5 0,39 -15,77 -43,104 -28,28 -66,43 -105,43 -2,0 -3,0 -5,0l-248 0 0 977c0,48 -16,88 -46,120 -30,31 -71,48 -113,48 -2,0 -3,0 -5,0 -1,0 -3,0 -4,0 -43,0 -84,-17 -113,-48 -30,-31 -47,-72 -47,-115 0,-2 0,-4 0,-5l0 -977 -147 0c-2,0 -3,0 -5,0 -39,0 -76,-15 -104,-43 -28,-27 -44,-65 -44,-104 0,-2 0,-3 0,-5 0,-44 14,-80 44,-109 28,-27 65,-43 104,-43 2,0 3,0 5,0l147 0 0 -127c0,-138 47,-250 141,-336 94,-87 229,-130 405,-130 68,0 126,14 176,41 47,23 76,70 76,122 0,2 0,3 0,5 0,45 -13,80 -39,108 -23,26 -56,41 -91,41 -1,0 -1,0 -1,0 0,0 -1,0 -1,0 -9,0 -19,-1 -28,-2l-31 -6c-36,-10 -73,-15 -110,-17 -62,0 -105,18 -131,54l0 0zm1549 718c-34,-67 -86,-124 -150,-164 -61,-38 -132,-58 -205,-58 -1,0 -2,0 -4,0 -76,0 -146,19 -208,58 -63,38 -113,93 -151,164 -37,71 -55,151 -55,241 0,91 18,171 55,241 38,69 88,124 151,162 62,39 132,58 208,58 77,0 147,-19 209,-58 63,-38 113,-93 151,-162 37,-71 55,-150 55,-241 0,-90 -18,-170 -55,-241l-1 0zm286 637c-63,114 -156,208 -269,272 -112,63 -239,97 -368,97 -2,0 -5,0 -7,0 -139,0 -264,-32 -377,-97 -113,-64 -205,-158 -268,-272 -65,-116 -98,-248 -98,-396 0,-147 33,-279 98,-396 63,-113 156,-208 268,-273 113,-65 238,-98 377,-98 136,0 261,33 375,98 113,65 206,159 269,273 65,117 98,249 98,396 0,148 -33,280 -98,396l0 0zm1460 179c0,0 0,0 0,1 0,44 -19,87 -52,117 -35,33 -73,50 -115,50 -53,0 -97,-24 -134,-72l-327 -411 -320 411c-15,21 -35,39 -59,51 -22,12 -46,18 -71,18 0,0 -1,0 -1,0 -38,0 -75,-15 -109,-44 -35,-30 -52,-64 -52,-102 0,-37 14,-72 41,-105l380 -469 -394 -494c-23,-28 -35,-63 -35,-99 0,0 0,0 0,-1 0,-46 17,-85 50,-117 34,-32 73,-48 117,-48 52,0 97,23 133,69l336 422 311 -417c35,-49 78,-74 132,-74 0,0 1,0 2,0 41,0 80,16 108,45 28,27 45,65 45,104 0,40 -13,76 -38,107l-377 464 393 494c23,28 36,63 36,99 0,0 0,0 0,0l0 1zm496 114c-30,31 -70,48 -113,48 -2,0 -3,0 -5,0 -1,0 -3,0 -4,0 -43,0 -84,-17 -113,-48 -30,-31 -47,-72 -47,-115 0,-2 0,-4 0,-5l0 -1140c0,-48 16,-88 47,-120 29,-31 70,-48 113,-48 1,0 3,0 4,0 48,0 87,16 118,48 30,32 46,72 46,120l0 1140c0,48 -15,88 -46,120l0 0zm-251 -1638c-26,-20 -39,-56 -39,-108l0 -52c0,-52 14,-87 41,-108 27,-20 71,-30 131,-30 64,0 109,10 134,30 26,21 38,56 38,108l0 52c0,54 -13,90 -39,109 -27,20 -72,29 -135,29 -62,0 -106,-10 -131,-30l0 0zm1653 255c95,49 142,114 142,195 0,40 -12,76 -35,106 -21,29 -55,46 -91,46 0,0 -1,0 -2,0 -29,0 -53,-4 -71,-13 -19,-9 -37,-20 -53,-33 -16,-13 -33,-24 -51,-34 -26,-12 -53,-20 -80,-25 -28,-7 -57,-11 -86,-11 -137,0 -244,43 -321,128 -77,86 -116,197 -116,335 0,133 39,243 117,330 79,88 178,131 300,131 90,0 156,-11 200,-33 11,-5 26,-15 45,-29 19,-14 37,-24 53,-32 18,-7 37,-11 56,-11 2,0 3,0 4,0 46,0 82,15 108,45 26,29 40,67 40,113 0,44 -26,85 -77,124 -51,39 -118,69 -202,92 -85,23 -173,35 -262,35 -2,0 -3,0 -5,0 -140,0 -264,-33 -370,-100 -107,-66 -193,-161 -247,-274 -59,-117 -88,-247 -88,-391 0,-149 31,-281 92,-397 58,-113 146,-207 255,-272 109,-65 233,-98 371,-98 155,0 280,25 374,73l0 0zm1400 453c-34,-67 -86,-124 -150,-164 -61,-38 -132,-58 -205,-58 -1,0 -2,0 -4,0 -76,0 -146,19 -209,58 -62,38 -113,93 -150,164 -37,71 -56,151 -56,241 0,91 19,171 56,241 37,69 88,124 150,162 63,39 133,58 209,58 76,0 146,-19 209,-58 63,-38 113,-93 150,-162 37,-71 56,-150 56,-241 0,-90 -19,-170 -56,-241l0 0zm286 637c-63,114 -156,208 -269,272 -112,63 -239,97 -368,97 -3,0 -5,0 -8,0 -138,0 -264,-32 -376,-97 -113,-64 -206,-158 -268,-272 -66,-117 -98,-249 -98,-396 0,-147 32,-279 98,-396 63,-113 155,-208 267,-273 113,-65 239,-98 377,-98 137,0 262,33 376,98 113,65 206,159 269,273 65,117 98,249 98,396 0,148 -33,280 -98,396l0 0zm0 0l0 0 0 0z"/>
    </g>
   </g>
  </g>
 </g>
</svg>
