<svg xmlns="http://www.w3.org/2000/svg" id="logo" viewBox="0 0 345.6 67.7" width="100%" height="100%">
    <g id="lICOmarks">
        <g id="lIC">
            <path class="lst0"
                  d="M12.2 68.1H0V15.2h12.2v52.9zM42.2 68c-3.4 0-6.7-.6-10-1.9-3.2-1.3-6.2-3.2-8.7-5.8-2.5-2.5-4.4-5.4-5.7-8.6s-2-6.6-2-10.1c0-3.6.7-7 2-10.2s3.2-6 5.7-8.5c2.6-2.6 5.5-4.5 8.8-5.8 3.3-1.3 6.6-1.9 10-1.9s6.7.6 9.9 1.9c3.2 1.3 6.2 3.2 8.7 5.8l-8.6 8.6c-1.4-1.4-3-2.4-4.8-3.1-1.8-.7-3.6-1-5.4-1s-3.6.3-5.4 1-3.3 1.7-4.7 3.1c-1.3 1.4-2.4 3-3.1 4.7s-1.1 3.6-1.1 5.5.4 3.7 1.1 5.4c.7 1.7 1.8 3.3 3.1 4.6 1.4 1.4 3 2.4 4.7 3.1 1.8.7 3.5 1 5.4 1 1.8 0 3.6-.3 5.4-1s3.4-1.7 4.8-3.1l8.6 8.6c-2.6 2.6-5.5 4.5-8.7 5.8-3.2 1.3-6.6 1.9-10 1.9z"></path>
        </g>
        <g id="lmarks">
            <path class="lst0"
                  d="M177.6 19.2c5.2 0 9.3 1.5 12.6 4.6 3.2 3.1 4.8 7.7 4.8 14v24h-4.3V37.4c-.2-4.6-1.4-8.1-3.6-10.6-2.2-2.4-5.7-3.6-10.4-3.6-2.7 0-5.2.6-7.5 1.8-2.3 1.2-4.5 3.2-6.6 6.1.6 1.9.9 4.2.9 6.9v23.8h-4.2v-24c0-9.6-4.7-14.4-14.1-14.4-5.5 0-9.8 2.3-13.1 6.8v31.6h-4.3v-41h3.5l.8 4.2c3.9-3.8 8.5-5.6 13.6-5.6 6.9 0 12 2.8 15.3 8.3 2.4-2.8 4.8-4.9 7.2-6.3 2.5-1.5 5.6-2.2 9.4-2.2zM201.7 50c-.2-2.5.3-4.8 1.3-6.8s2.4-3.5 4.1-4.7 3.7-2 5.9-2.6c2.2-.6 4.5-.8 6.9-.7 3.5.1 6.6.8 9.2 2.2s4.8 2.9 6.4 4.8v-1.7c0-5.8-1.2-10.1-3.5-12.9s-5.9-4.1-10.8-4.1c-2.9 0-5.7.6-8.3 1.7-2.7 1.1-4.8 2.7-6.5 4.7l-2.3-3.6c2.1-2.2 4.6-3.9 7.7-5.1 3-1.2 6.2-1.8 9.4-1.8 6.1 0 10.7 1.7 13.9 5 3.1 3.3 4.7 8.5 4.7 15.6v22h-3.5l-.8-4.2c-1.6 1.4-3.8 2.7-6.8 3.8s-5.9 1.7-8.7 1.8c-5.4.1-9.8-.9-13-3.2-3.2-2.3-5.1-5.7-5.3-10.2zm33.8 4.1v-6.6c-1-2-3-3.9-5.9-5.6s-6.1-2.7-9.5-2.9c-1.8-.1-3.5 0-5.2.4-1.7.3-3.2.9-4.6 1.7-1.4.8-2.5 2-3.3 3.5-.8 1.5-1.1 3.3-1 5.3.2 3.1 1.5 5.5 4.1 7.1s5.8 2.4 9.8 2.5c2.9 0 5.7-.4 8.4-1.4 2.7-.9 5.1-2.3 7.2-4zM268 19.5l-.9 4.2c-.4 0-1-.1-1.8-.1-6.4 0-11.1 2.2-14.3 6.6v31.6h-4.3v-41h3.4l.9 4.2c3.9-3.8 8.9-5.6 14.8-5.6.5 0 1.2 0 2.2.1zM278.7 0v61.8h-4.3V0h4.3zm28 20.8l-20.1 20.4 20.9 20.5h-6L281 41.2l19.8-20.4h5.9zM343.5 23.5l-2.1 3.6c-1.3-1.1-3.1-2.1-5.6-3s-5-1.4-7.5-1.4c-2.9 0-5.2.6-6.9 1.8-1.7 1.2-2.7 2.9-2.8 5-.2 2.5.9 4.4 3 5.6 1.9 1.1 4.5 1.9 7.8 2.6 4.3.9 7.7 1.8 10 2.8 2.6 1.1 4.3 2.7 5.3 5 .9 2.2 1.1 4.7.6 7.5-.7 3.5-2.9 6.1-6.4 7.7-2.6 1.2-5.8 1.8-9.6 1.8-3.2 0-6.4-.6-9.6-1.8-3.2-1.2-5.7-2.6-7.6-4.2l2.1-3.6.4.4c1.3 1.3 3.4 2.5 6.2 3.6 2.9 1.1 5.7 1.6 8.5 1.6 3.3.1 6-.4 8-1.5 2.1-1.1 3.4-2.7 3.8-4.8.7-3.6-.5-6.1-3.8-7.6-2.2-1-5.1-1.8-8.7-2.5-4.4-.9-7.5-2-9.4-3-3.8-2.2-5.5-5.3-5.2-9.3.3-3.7 1.9-6.6 5-8.6 2.3-1.6 5.4-2.3 9.1-2.3 6.1-.2 11.1 1.4 15.4 4.6z"></path>
        </g>
        <path id="llogo" class="lst0"
              d="M87.9 14.7c-14.6 0-26.5 11.9-26.5 26.5s11.9 26.5 26.5 26.5 26.5-11.9 26.5-26.5-11.9-26.5-26.5-26.5zm12.5 30l2.3 13.5v.5c0 .4-.1.7-.3 1s-.5.4-.8.4-.7-.1-1.1-.3l-12.1-6.3-12.1 6.4c-.4.2-.8.3-1.1.3-.4 0-.7-.1-.9-.4-.2-.3-.3-.6-.3-1 0-.1 0-.3.1-.5l2.3-13.6-9.8-9.6c-.5-.5-.7-.9-.7-1.3 0-.7.5-1.1 1.5-1.2l13.6-2 6.1-12.3c.3-.7.8-1.1 1.3-1.1s1 .4 1.3 1.1l6.1 12.3 13.6 2c1 .2 1.5.6 1.5 1.2 0 .4-.2.8-.7 1.3l-9.8 9.6z"></path>
    </g>
</svg>