<?xml version="1.0" encoding="utf-8"?>
<!-- Generator: Adobe Illustrator 21.1.0, SVG Export Plug-In . SVG Version: 6.00 Build 0)  -->
<svg version="1.1" id="Layer_1" xmlns="http://www.w3.org/2000/svg" xmlns:xlink="http://www.w3.org/1999/xlink" x="0px" y="0px"
	 viewBox="0 0 463.4 183.3" style="enable-background:new 0 0 463.4 183.3;" xml:space="preserve">
<style type="text/css">
	.st0{fill:#000000;}
	.st1{fill:#FFD500;}
</style>
<g>
	<path class="st0" d="M341.7,108.7l4.3,34.2h-23L341.7,108.7z M333.8,83.9L276,183.3h24.8l11.1-20.2h36.9l2.7,20.2h23l-15-99.4
		H333.8z"/>
	<path class="st0" d="M179.2,0l-14.3,67.4c-4.9,22.7-21,34.1-40.4,34.1c-21.6,0-35.9-13.2-35.9-32.8c0-4.5,0.7-7.9,1.7-12.8L102,0
		h22.4l-12.1,57c-0.7,3.4-1.1,6.6-1.1,8.4c0,8.3,4.3,14.2,15.3,14.2c10.2,0,14.9-5.3,17.1-16.3L156.8,0L179.2,0L179.2,0z"/>
	<path class="st0" d="M86.3,25.8c0-14.7-10-25.8-29-25.8H21.5l-21,99.4h22.1l17-80.3h12.2c8.1,0,11.6,3.9,11.6,10
		c0,8.3-6.2,14.3-16.4,14.3H34.8l21.3,56.1h23.1L62.2,59C76.2,54.3,86.3,42.3,86.3,25.8"/>
	<path class="st0" d="M426.7,123.7c8.5,0,14.4-4.8,14.4-12.5c0-5.6-3.5-9-11.4-9H420l-4.5,21.4L426.7,123.7L426.7,123.7z
		 M419.8,165.2c9.4,0,16.1-5.2,16.1-13.5c0-5.9-3.9-9.8-11.9-9.8h-12.3l-5,23.3H419.8z M436.6,83.9c18.1,0,26.8,10.1,26.8,23.8
		c0,11.4-8.1,22.3-18.8,25.2c5.7,2,13,9,13,19.5c0,18.2-14.4,30.8-34.9,30.8h-41.5l21-99.4H436.6z"/>
	<polygon class="st0" points="195.3,84.6 204.9,34.2 221.9,72.8 265.2,53.8 276.7,0 254.5,0 241.6,60.6 217.8,0 191.4,0 171.3,95.2 
			"/>
	<polygon class="st1" points="71.1,150 63.8,184.3 404.2,34.2 411.4,0 	"/>
	<polygon class="st0" points="253.4,111.4 229,122.1 216.1,183.3 269.2,183.3 273.7,162.1 242.6,162.1 	"/>
</g>
</svg>
